<svg width="20" height="22" viewBox="0 0 20 22" fill="none" xmlns="http://www.w3.org/2000/svg">
<path d="M8.38577 15.4559H6.36996V14.2646H8.38577C9.89763 14.2646 11.3289 13.6892 12.4124 12.6595L11.47 11.7156C10.6384 12.4929 9.53983 12.9321 8.38577 12.9321H6.36996V11.7509H8.38577C10.2302 11.7509 11.7371 10.2467 11.7371 8.39423C11.7371 6.54174 10.2353 5.03755 8.38577 5.03755C6.53627 5.03755 5.03449 6.54174 5.03449 8.39423V20.2562H3.85524V8.39423C3.85524 5.89565 5.88617 3.86145 8.38073 3.86145C9.59526 3.86145 10.7292 4.33592 11.5708 5.17888L12.5131 4.23497C11.4196 3.13963 9.95307 2.52887 8.38073 2.52887C5.1504 2.52887 2.51976 5.16374 2.51976 8.39928V20.2612H1.33043V8.39928C1.33043 4.50754 4.49022 1.33763 8.38073 1.33763C10.3159 1.33763 12.0747 2.12506 13.3497 3.39706L14.2921 2.45315C12.7802 0.933814 10.6888 0 8.38577 0C3.75949 0 0 3.76554 0 8.39423V21.5938H6.36996V16.7885H8.38577C10.6384 16.7885 12.6845 15.895 14.1913 14.4413L13.2489 13.4974C11.984 14.7088 10.2706 15.4508 8.38577 15.4508V15.4559ZM6.36996 8.39423C6.36996 7.28375 7.27204 6.37517 8.38577 6.37517C9.49951 6.37517 10.4016 7.2787 10.4016 8.39423C10.4016 9.50976 9.49951 10.4133 8.38577 10.4133H6.36996V8.39423Z" fill="#A4A4A4"/>
<path d="M16.6859 1.47389L15.7385 2.42285C17.1495 4.12895 17.9206 6.25905 17.9206 8.50021C17.9206 10.7414 17.1546 12.8715 15.7385 14.5776L16.6859 15.5265C18.3489 13.563 19.251 11.0997 19.251 8.50021C19.251 5.90067 18.3439 3.43742 16.6859 1.47389Z" fill="#363636"/>
<path d="M13.1633 5.00222L12.2007 5.96632C12.6644 6.69318 12.9062 7.52604 12.9062 8.39423C12.9062 9.26243 12.6291 10.2013 12.1201 10.9534L13.0776 11.9124C13.8335 10.9029 14.2468 9.66624 14.2468 8.39423C14.2468 7.12223 13.8738 5.9966 13.1683 5.00222H13.1633Z" fill="#363636"/>
<path d="M14.9624 3.20015L14.0099 4.15415C14.9019 5.3353 15.426 6.80417 15.426 8.39417C15.426 9.98418 14.8616 11.554 13.9142 12.7553L14.8616 13.7043C16.0459 12.2556 16.7565 10.4082 16.7565 8.39417C16.7565 6.38016 16.0812 4.62863 14.9523 3.20015H14.9624Z" fill="#363636"/>
</svg>
